<?xml version="1.0" encoding="UTF-8"?>
<svg id="Capa_2" data-name="Capa 2" xmlns="http://www.w3.org/2000/svg" xmlns:xlink="http://www.w3.org/1999/xlink" viewBox="0 0 408.28 408.28">
  <defs>
    <style>
      .cls-1 {
        fill: #99614f;
      }

      .cls-2 {
        fill: #b7c4be;
      }

      .cls-3 {
        fill: #226145;
      }

      .cls-4 {
        fill: #898d81;
      }

      .cls-5 {
        fill: #f7deb9;
      }

      .cls-6 {
        fill: #6f5241;
      }

      .cls-7 {
        fill: #f6deba;
      }

      .cls-8 {
        fill: #ce6f77;
      }

      .cls-9 {
        fill: #e3777d;
      }

      .cls-10 {
        fill: #f4a18d;
      }

      .cls-11 {
        fill: #e4777e;
      }

      .cls-12 {
        fill: #3d2212;
      }

      .cls-13 {
        fill: #9eafa8;
      }

      .cls-14 {
        fill: none;
      }

      .cls-15 {
        fill: #422516;
      }

      .cls-16 {
        fill: #f9f9f9;
      }

      .cls-17 {
        fill: #bfbeb7;
      }

      .cls-18 {
        fill: #3e2213;
      }

      .cls-19 {
        fill: #91aa9e;
      }

      .cls-20 {
        fill: #f5ddb8;
      }

      .cls-21 {
        fill: #583524;
      }

      .cls-22 {
        fill: #f2a08c;
      }

      .cls-23 {
        fill: #c87d69;
      }

      .cls-24 {
        fill: #f7deba;
      }

      .cls-25 {
        fill: #f2c18d;
      }

      .cls-26 {
        fill: #f3e1e2;
      }

      .cls-27 {
        fill: #98654f;
      }

      .cls-28 {
        fill: #774332;
      }

      .cls-29 {
        fill: #f2b476;
      }

      .cls-30 {
        fill: #e99299;
      }

      .cls-31 {
        fill: #f5d2a6;
      }

      .cls-32 {
        fill: #e4787e;
      }

      .cls-33 {
        fill: #eb898a;
      }

      .cls-34 {
        fill: #ab6264;
      }

      .cls-35 {
        fill: #f3a08c;
      }

      .cls-36 {
        fill: #975653;
      }

      .cls-37 {
        fill: #f7dfba;
      }

      .cls-38 {
        fill: #3e2313;
      }

      .cls-39 {
        fill: #e4718c;
      }

      .cls-40 {
        fill: #e08c7c;
      }

      .cls-41 {
        fill: #3e2212;
      }

      .cls-42 {
        fill: #ef9e89;
      }

      .cls-43 {
        fill: #e5777e;
      }

      .cls-44 {
        fill: #e89d88;
      }

      .cls-45 {
        fill: #c76a6d;
      }

      .cls-46 {
        fill: #f4cfac;
      }

      .cls-47 {
        fill: #3f2313;
      }

      .cls-48 {
        fill: #f5ddb9;
      }

      .cls-49 {
        clip-path: url(#clippath);
      }

      .cls-50 {
        fill: #683830;
      }

      .cls-51 {
        fill: #ec987f;
      }
    </style>
    <clipPath id="clippath">
      <circle class="cls-14" cx="204.14" cy="204.14" r="204.14"/>
    </clipPath>
  </defs>
  <g id="Capa_1-2" data-name="Capa 1">
    <g class="cls-49">
      <g>
        <path class="cls-12" d="M69.1,161.66c-2.81-1.44-10.1-5.81-10.53-8.86-.64-4.54,4.03-3.32,7.32-4.11,1.24-.3,5.62-1.08,5.91-1.19.6-.23,5.48-4.29,6.04-5.07,4.51-6.33,2.47-13.13,4.88-19.76,3.11-8.57,21.79-26.02,29.06-33.16,7.84-7.7,29.72-29.75,38.76-33.08,12.9-4.76,50.78,3.31,65,6.39,9.14,1.98,9.4.56,17.89.33,18.06-.49,56.02,4.66,70.13,15.65,2.9,2.26,6.04,6.97,7.88,10.2,5.01,8.8,10.47,22.42,13.4,32.42.85,2.9,3.5,18.41,4.29,18.97,3.08,2.19,11.49-2.55,14.26-4.48,6.1-4.25,14.6-16.4,14.74.03.09,9.9-2.51,23.59-8.62,31.46.92,2.9-1.93,3.83-4.54,3.81-9.3-1.85-26.24,3.54-21.78,15.81l2.22,11.36c.06.86-.37,1.47-1.17,1.82,2.66,2.8,2.51,5.83,1.51,9.39,2.27,1.08,2.75,3.39.95,5.18,1.76,2.03,2.12,4.35,1.04,6.8.86,1.01,1.18,2.73.95,5.18,2.57,1.38,1.71,5.8,1.13,8.43,2.62,2.94,3.62,8.38,1.98,11.98,2.31.34,2.62,4.81.66,5.85l1.74,2.33c.09,2.93.65,5.03,1.69,6.3,1.22-.38,2.31-.45,3.26-.18,3.2,1.05,2.09,6.69,1.41,9.52-1.81,2.92-4.31,10.7-1.82,13.57,1.76,2.04,7.59-12.64,8.08-13.9l1.7.41c6.62-3.05,23.3-14.84,30.4-12.31,1.81.64,2.44,2.4,3.44,3.86,1.57,1.78-3.64,8.65-5.91,8.18.49.29,1.2.78,1.08,1.17-.66,2.25-3.34,8.45-4.53,10.5l-1.75.38c.51.21,1.2.52,1.21.98.05,1.92-.9,12.1-1.86,12.83-.47.35-9.82,3.58-11.04,3.86l-1.9-.89c-.29.48-.61.95-.99,1.34s-.74.74-1.16.87c-4.49,1.34-9.01,2.6-13.59,3.53l2.24,13.63c1.3,4.1-2,10.22-6.49,8.56l-.49,1.85c-11.3,4.5-22.72,8.64-34.24,12.42-4.98,1.55-9.04.47-9.42-5.28.1-10.27.35-20.98,1.48-30.93-11.35,2.44-23.12,3.73-34.7,4.7-2.97.25-5.97.5-8.96.52-.59,0-1.18-.21-1.79-.45s-1.22-.59-1.8-.96c-1.28.4-1.49-.11-.38-.96l1.37-1.97c5.27-1.73,10.25-4.17,15.06-6.93l2.37.32,1.19-2.39c10.95-6.25,20.62-15.3,26.56-26.3.55-3.67,1.45-7.21,2.71-10.62-1.96-4.97-1.9-10.88.42-15.71-.96-.48-.52-1.69.2-2.3-2.15-7.19-2.12-16.58.63-23.57-1.19-.23-.91-2.04.2-2.3-.37-.26-.57-.5-.38-.96-2.05-5.63-1.97-11.8.33-17.34l-.92-1.61c-.45-12.15-.63-24.85,1.02-36.96-2.92.61-5.95.48-9.11-.37-6.64-.98-37.37-6.92-41.76-11.36-.59-.6-.96-1.33-1.3-2.08-2.09,5.16-9.01,19-14.72,10.79,1.59-6.51,1.95-11.12-.94-17.42l.62-.93-.76-1.92c-.47.49-.69.39-.67-.29-.9.04-1.37-1.37-1.43-2.21-.3-.67-.53-.76-.67-.29,1.14,1.12,1.39,2.31,1.52,3.84,2.85,1.6,2.87,9.73-.08,11.3-.92.49-11.26.7-13.16.73-18.17-.7-36.38-.17-54.63,1.6-5.94,1.03-6.94-9.3-5.33-13.43-.32-1.1-.64-.97-.96.38,1.82,7.15-4.15,13.54-11.5,13.71l-13.89,1.83c-1.53,1.78-2.72,2.17-3.59,1.16.45,13.15.43,26.27-.07,39.38l-.98,2.5c2.46,4.73,1.43,10.77-.42,15.71l1.47,1.73c.38,6.56.34,13.1-.11,19.64l-1.69,1.53c.49.75.3,1.2-.58,1.34.89.69,1.86,1.84,1.14,2.88,1.04.29,1.01,1,.09,1.63.63.32,1.24.76,1.46,1.47.47,1.44.23,11.56-.04,13.62l-1.46,1.59c.48.47.39.7-.29.67l1.39,2.67c-.55,6-.46,11.96.3,17.87,5.19,5.28,11.06,9.86,17.6,13.74l.75,2.17c9,4.46,18.23,8.51,27.72,12.14-.33,1.16-1.37,1.45-3.13.85l-2.83,1.14c-13.76-.79-27.27-2.59-40.51-5.39-.47,10.79-.57,21.71-.3,32.76l-1.06,2.38c2.31,2.68.94,4.2-1.88,5.48-.98.45-10.49.23-12.24.17-6.56-.22-33.55-1.88-38.42-4.55-3.6-1.97-3.5-5.31-3.16-8.98,1.66-12.41,3.47-24.81,5.44-37.18-4.42-1.81-6.93.72-7.55,7.62l-2.02,12.29-1.63.91c-1.73.82-3.91.72-6.53-.32-4.36-.12-8.35-1.09-11.96-2.89l-1.96,1.15-14.23-2.23c-2.54-11.4-8.62-18.23-16.51-26.07l.67-1.77c-2.06-5.1-1.62-12.41,4.84-13.67,9.98-1.95,32.83,9.87,38.44,7.33,3.71-1.67,6.71-13.98,6.98-18.07-2.42-4.95,7.04-.54,7.14-.05-.75,1.87-1.29,3.74-1.6,5.62l1.19,1.43c-.73,4.27.71,8.7,3.69,11.82,5.82,6.12,2.97-1.58.21-4.64-1.37-2.94-1.88-10.1,2.01-10.32.74-.95,1.81-1.08,3.21-.38.48-2.06,1.14-4.1,1.98-6.12-2.11-.88-1.21-3.17.78-3.64-1.03-2.92-.64-5.72,1.17-8.24-1.92-1.11-2.06-3.12.11-3.93-1.29-6.61,0-14.14,3.11-20.11-1.43-3.05-1.74-4.89.88-7.57-1.3-6.51-.18-13.53,2.82-19.44-.96-3.68-.51-7.23,1.37-10.54l-1.29-1.11,1.99-9.54c-7.11-2.83-14.33-5.46-21.64-7.89l-.47-1.82Z"/>
        <path class="cls-39" d="M337.64,327.56c2.91,2.94,2.43,11.01.16,14.37l1.48,1.77c.74,5.35,1.42,13.78-.66,18.45-.07,3.58-.69,15.15-1.51,18.09-.98,3.51-2.03,5.79-5.24,7.54-7.42,4.06-30.86,3.39-40.43,4.44-1.38.15-6.8.5-7.01,1.71l33.11,105.69c.42,1.49-.15,2.56-1.69,2.95-3.5-.38-7.01-.46-10.51-.62l-3.31.83c-66.64-2.29-135.43,4.85-199.68,14.81-2.55.68-4.23.25-5.04-1.28-.7-.09-3.12-1.04-3.2-1.89,7.73-38.03,16.1-75.96,23.79-113.99-1.53-4.02.2-10.07,2.05-13.84-14.55.36-29.98-.17-44.07-1.11-4.02-1.65-8.95-2.32-12.63-4.7-2.48-1.6-3.11-4.92-4.68-6.75-2.63-5.46-2.4-14.44.53-19.64-.55-1.93-1.08-3.93-.97-5.95.53-9.52,1.48-20.16,4.88-28.91.01-2.15-.08-3.77-.28-4.89.81-4.7,2.24-16.33,4.03-19.91,2.17-4.34,4.72-2.89,8.76-2.39-1.09,13.15-4.91,27.23-5.67,40.29-.38,6.58,2.65,6.33,8.2,7.28,7.69,1.32,35.78,4.31,41.96,2.92.76-.17,1.94.37,2.5.02,3.59-2.23-.42-3.22-.52-3.45-.14-.32,2.12-2.02,1.83-3.16l-.14-33.86c.54-1.08,20.94,3.52,23.73,3.88,7.08.92,14.38.78,21.51,1.73l2.28.21c.6-1.97,3.81-.16,5.52,1.03,3.88,5.96,9.19,9.83,16.13,11.46,8.83,4.11,19.69,3.95,29.26.75l2.84.38c.98-1.85,2.71-3.29,5.18-4.3,1.93-2.89,4.27-4.74,7.01-5.54-.05-.73.68-1.21,2.21-1.43l2.59-.47c-.28-2.19,1.31-2.7,2.88-1.14.91.26,1.9.42,2.97.49,5.34.01,10.59-.35,16.02-.9,10.58-1.07,21.2-2.49,31.75-3.91,1.07,10.38-1.02,21.56-.54,31.85.37,8.01,9.02,3.34,14.37,1.53,7.75-2.63,21.51-7.08,28.33-10.44Z"/>
        <path class="cls-10" d="M44.22,311.44c4.18.54,4.52,2.09,4.85,5.92l2.67,32.3-1.38.98-1.51,1.09c-3.83-.28-10.43-1.47-13.04-4.19-3.94-1.43-5.99-2.56-10.71-3.91-2.28-.65-5.32-2.77-7.27-2.92-.7-.05-9.25,5.7-11.56,6.53-27.36,9.85-59.88-16.72-50.05-45.53,6.17-18.1,27.3-28.2,45.42-22.73,3.6,1.09,6.86,3.51,10.57,3.54,1.12,2.77,8.36,8.4,11.06,12.54,3.03,4.65,4.24,8.97,5.54,14.3,5.26-.08,10.29,1.27,15.43,2.07Z"/>
        <path class="cls-10" d="M362.35,331.07c-3.93,2.93-7.99,4.36-12.18,4.28-2.03-.51-2.64-2.17-1.83-4.98,2.86-9.06,5.45-18.41,7.76-28.07l1.54-2.67c4-1.31,7.93-3.3,12.13-4.01.82-1.32.46-10.42,1.47-12.77l5.2-12.06c.2-.46,5.48-7.76,5.91-8.18.39-.38,8.35-4.73,9.33-5.15,24.85-10.69,54.42,6.35,52.65,34.65-1.66,26.61-25.77,35.18-48.61,28.61-2.52-.72-5.37-2.83-7.79-2.85-1.03,0-16.66,7.44-18.8,8.58-2.29,1.22-5.19,2.59-6.78,4.61Z"/>
        <path class="cls-10" d="M69.1,161.66c4.27,2.18,22.03,6.9,23.38,9.2.29.49-1.75,9.51-1.97,11.16-.09,1.68-.61,2.63-1.57,2.85-16.4-17.42-38.42,8.81-37.74,25.64,3.85-10.97,9.12-23.6,20.73-28.06,8.11-3.12,17.02.73,17.22,10.1-.87,6.49-1.94,12.96-2.82,19.44l-1.21,2.67c-11.45,1.94-15.79,23.75-3.51,27.4l.62,1.54c-.39,2.73-.78,5.5-1.17,8.24l-1.07,1.59c-5.19.74-8.82,4.54-10.26,9.46l-1.73.8c-1.09-1.14,1.24-3.86,1.07-4.31-.07-.19-3.06-1.33-3.72-1.6-1.3-.52-2.4-1.84-2.89.34.23-3.58-4.94-5.38-7.58-7.81-10.01-9.22-16.89-22.48-18.34-36.02-2.45-22.89,7.89-48.38,32.57-52.63Z"/>
        <path class="cls-10" d="M349.52,167.4c.13,1.73.17,1.25,1.31,1.77,10.91,4.96,17,7.93,20.58,20.33,5.07,17.55-1.92,39.34-13.06,53.23h-1.77c-5.42-7.87-14.72-3.6-3.9,1.92,1.73,1.39,3.25,4.03.48,4.58-1.02,1.15-2.05,2.29-3.07,3.44-.83.7-1.66,1.4-2.5,2.1-.31,1.66-1.51,1.61-2.88,1.14l-1.66.08c-2.31-3.58-5.57-7.62-10.25-7.48l-1-1.34c-.68-4.06-1.44-7.87-1.98-11.98l.37-3.71c2.35-5.15,4.37-12.34-2.43-14.83l-1.05-1.87c-.26-1.7-.67-3.44-.95-5.18,1.06-11.31,16.86-26.01,28.16-17.66,9.88,10.7,6.94,2.08.17-2.76-10.39-7.41-21.67,3.94-27.33,12.19-1.85,1.06-1.98.92-2.51-1.17-.79-5.23-3.22-14.27-3.1-19.07.17-6.89,12.47-11.48,18.28-11.89,4.78-.33,6.87,2.3,10.09-1.85Z"/>
        <path class="cls-12" d="M210.53,22.78c5.28,5.35,9.9,14.62,11.97,22.69,7.34,28.64-18.5,7.19-24.74-4.08-1.31-2.37-4.37-11.74-4.45-14.31-.29-9.03,4.14-14.1,12.82-8.97,2.11,1.25,2.8,3.05,4.39,4.67Z"/>
        <path class="cls-41" d="M117.88,400.43c-15-2.44-28.11-9.24-42.02-14.95,2.12-1.01,5.85-.99,8.22-.98,12.17.06,24.4,1.01,36.58,1.24-.58,4.93-1.79,9.82-2.77,14.69Z"/>
        <path class="cls-38" d="M241.24,34.6c2.31-.84,2.7-2.89,5.89-.03,6.59,5.91-9.24,24.6-15.79,24.71-3.65.06-4.74-1.59-4.27-5.07,1.04-7.72,6.89-16.96,14.17-19.61Z"/>
        <path class="cls-18" d="M362.35,331.07c-1.41,1.79-2.7,5.3-4.05,7.28-5.95,8.73-11.68,16.79-19.69,23.8.12-5.82-.82-13.75-.81-20.22,1.41-3.77,8.65-7.62,12.37-6.58,3.12-1.43,6.53-2.87,9.73-4.14.44-.18,2.73-1.6,2.44-.14Z"/>
        <path class="cls-48" d="M344.71,255.91c1.33-.03,2.15,1.13,2.48,3.45-.01,3.15.04,7.6.2,10.64.05.88,1.1.97,1.11,1.05,0,.09-1.02.73-1.23,1.42-1.77,5.8-3.64,11.56-9.3,14.69-.43-.2-1.92-8.4-1.78-9.3.38-2.45,2.84-5.68,3.4-9.1.41-2.51,0-4.85-.47-7.3-.7-.09-.83-.41-.38-.96-2.45-2.16-4.56-4.65-6.31-7.49-.33-1.95-.37-4.15-.66-5.85,5.78-1.05,10.3,4.36,12.91,8.75Z"/>
        <path class="cls-38" d="M59.07,354.4c-.5,6.6-1.03,13.01-.53,19.64-2.64-3.07-7.55-6.23-10.54-9.41-4.64-4.93-8.75-11.28-12.2-17.08,3.52,1.28,9.93,1.67,14.56,3.1,1.9-2.21,8.96.32,8.71,3.76Z"/>
        <path class="cls-7" d="M358.35,242.72c3.34,5.56,2.35,18.88-6.03,17.73-2.07-.28-2.62-3.23-4.54-2.43-1.82.06-2.56-3.19-.18-3.26.14-.1,2.09-1.76,2.5-2.1,2.62.63,3.64-.51,3.07-3.44-.15-.37.72-1.57-1.05-3.17-2.23-2.01-8.08-3.79-5.23-7.68,3.18-4.32,9.54,1.13,11.47,4.34Z"/>
        <path class="cls-6" d="M347.59,254.77c-.8,1.16.19,2.54.18,3.26,0,.38-.58.96-.58,1.34l-.62.52c-.59-1.32-1.13-2.73-1.87-3.97.73-1.85,2.74-1.05,2.88-1.14Z"/>
        <path class="cls-10" d="M247.4,159.11c-5,1.2-.67-8.48,2.57-8.45,14.71,3.81,29.84,7.05,44.75,10.03l1.6,1.12c-1.27,11.64-1.74,23.14-1.4,34.5l-2.29.42c-22.63-13.22-50.28-9.54-62.13,15.68-7.62,16.21-4.72,38.5,10.95,48.1.49,2.65,2.36,3.6,4.68,4.74,4.24,2.08,8.87,3.3,13.46,4.28l.66,1.61.72,1.96c-3.98,9.34.83,18.08,6.83,25.19l-1.68,1.61c-6.43,3.73-11.62,6.38-18.8,8.58-.53.96-1.76,1.21-2.59.47-1.27.34-2.16.94-2.88,1.14l-2.59.47c-14.28,2.58-30.82,3.24-45.37,1.55-2.41-.88-5.04-1.37-7.89-1.48l-3.07.67c-9.25-2.94-17.75-6.88-26.61-11.09l-6.88-3.48c-.65-.99-.25-1.98,1.2-2.97,8.93-5.38,11.77-14.46,9.49-24.49l1.76-1.6c51.76-6.09,45.93-75.87-2.25-81.51-8.72-5.34-18.71.48-26.51,5.55l-2.23-.21c-.58-.03-1.46-.18-1.5-.58-.45-4.45-3.2-34.54-2.2-36.04,7.64-2.38,15.68-3.48,24.13-3.29,3.46-1.16,6.68-1.28,9.65-.35,9.31-1.39,18.77-1.91,28.36-1.56,13.35.78,26.59.3,39.7-1.44,5-.47,1.03,19.21-2.09,21.92-.36,2.54,10.71-3.78,11.41-4.55l1.91.77c1.06-.33,1.99.18,2.79,1.53,5.49,5.65,35.81,21.18,41.06,16.07,6.32-6.15-22.18-24.35-28.7-23.04-3.26.03-5.94-.57-8.04-1.82Z"/>
        <path class="cls-3" d="M124.26,212.47c1.04-7.47,9.73-13.12,16.07-16.34,30.46-15.46,61.65,27.87,35.96,52.06-9.93,9.35-23.55,11.63-36.07,6.32-5.16-2.19-14.48-7.45-14.01-13.38-1.16-.07-1.48-1.08-.76-1.92-.8.09-1.25-1.26-.76-1.92-.48-.41-.73-1.05-.76-1.92,1.19-6.95.31-15.74.34-22.9Z"/>
        <path class="cls-3" d="M296.42,216.8c.45.58.93,1.32,1.43,2.21-.5,7.86-.43,15.7-.63,23.57-.4,1.1-.92,1.68-1.54,1.72.4,4-5.17,8.01-8.43,10.27-13.31,9.21-33.11,8.57-43.82-4-11.98-7.24-9.74-24.19-3.33-34.92,11.27-18.86,31.21-24.52,48.94-10.37,3.23,2.58,8.59,7.35,7.37,11.52Z"/>
        <path class="cls-16" d="M160.15,269.27c-.45.64-.99,1.33-1.77,1.56-3.45,1-14.19-.74-18-1.79-4.85-1.34-13.14-4-14.41-8.95-.1-.96-.66-1.65-1.43-2.21-.02-5.19.27-11.83.04-16.67-.1-1.41,1.02-1.21,1.63-.09.36.36,1.47.49,2.01.87l-1.2,1.01c13.49,15.78,36.95,17.84,50.76,1.46,17.9-21.22-3.61-54.97-30.79-49.56-4.73.94-14.34,7.52-17.87,10.91-2.23,2.14-3.06,4.41-4.85,6.65.03-5.23.38-10.5.42-15.71.67-2.88,3.12-6.15,6.24-5.25,6.25-4.52,13.33-8.39,21.12-9,4.62-.36,3.24.64,6.22,1.7,6.9,2.45,10.49.04,18.87,5.87,21.81,15.17,31.56,39.44,14.5,62.75-8.53,11.66-17.38,15.51-31.49,16.45Z"/>
        <path class="cls-16" d="M294.93,196.3c2.25-1.43,2.57-.07,3.06,2.11-.2,5.76-.25,11.57-.33,17.34l-.29.67c.47,1.32-.05,1.51-.96.38-4.73-11.34-21.31-20.37-33.35-17.56-14.39,3.36-27.08,19.89-26.79,34.52.08,3.96,1.81,10.33,4.44,13.25.34.38,3.17,2.04,3.69,2.48.98.82,1.22,2.11,2.29,2.89,16.44,12.08,37.24,8.02,48.99-8.09.74-1.33,1.22-.88,1.34.58-.17,5.24-.18,10.47-.42,15.71-1.17,7.73-14.13,11.53-21.16,12.48-4.55.62-12.03,1.36-15.18-1.93-5.43-1.01-15.28-3.63-19.16-7.54-.51-.51-.45-2.28-1.38-2.92-.36-.25-.78,1.81-1.9.77-.11-2.97-2.47-3.36-3.3-4.34-20.58-24.61-6.14-63.96,25.73-69.12,11.61-1.88,24.64,2.76,34.66,8.3Z"/>
        <path class="cls-43" d="M160.15,269.27c2.19.52,1.57.78,1.81,2.32.93,6.01.13,11.78-3.32,16.93-2.35,3.51-6.23,4.92-8.7,8.12l6.41,3.56c-4.22-1.04-8.24-2.77-12.06-5.2-3.22-1.94-6.93-4.39-10.12-6.81-2.26-1.7-8.3-6.32-9.51-8.43-1.5-2.6-.4-17.1-.4-21.21,1.44-.7,2.37-.05,1.72,1.54,9.35,7.98,22.31,9.98,34.18,9.18Z"/>
        <path class="cls-11" d="M230.88,138.47c2.21,4.36,3.69,7.3,3.05,12.39-.23,1.83-2.89,6.1-.06,7.06,4.51,1.51,9.79-10.01,10.94-13.04.4-1.06.17-2.25.62-3.3,2.29,1.22.94,3.9,3.05,5.72,4.05,3.49,20.04,6.71,26.01,8.03,8.04,1.78,16.38,3.3,24.54,3.8-.41,6.28-.57,12.59-.65,18.89-.08,6.39-.15,13.56-.39,20.4-.95-.83-1.96-1.51-3.06-2.11-2.08-1.79-1.55-3.79-1.63-6.29-.29-8.89.68-18.92,1.96-27.71l-46.27-10.37c-.76,1.35-1.38,2.83-1.93,4.29-.49,1.31-1.86,2.38.34,2.89.04.64-.09,1.32-.63,1.6-3.75,1.95-4.19,2.2-6.48,5.67-5.01,1.76-9.9,8.25-15.44,4.47,3.59-5.73,5.06-10.53,5.09-17.29,0-.74.22-3.82-1.01-3.9-7.87.77-15.85,1.59-23.75,1.72-14.41.25-29.87-1.35-44.19-.13.08-.01.27-1.09,1.03-1.17,13.31-1.38,27.76-2.03,41.21-2.2,4.35-.06,22.71,1.69,24.88-.27,2.16-1.95,1.38-7.35.74-10-.72-1.57-.93-2.82.58-1.34.12.17.56.12.67.29l.76,1.92Z"/>
        <path class="cls-43" d="M266.14,299.89c1.05-1.47-.22-1.74-.95-2.65-6.23-7.74-9.6-16.45-4.92-26.11,12.16,2.26,24.2.23,33.95-7.49,1.15-.91,2.05-1.46,2.39-3.06-.48,10.57-.09,10.67-6.93,19.6-6.83,8.93-13.99,14.18-23.54,19.71Z"/>
        <path class="cls-43" d="M62.7,314.65c.13,1.44.22,3.06.28,4.89-1.57,11.56-3.04,23.23-3.91,34.86-2.04-2.4-5.68-2.83-8.71-3.76l-2.72-33.06c-.65-2.59.03-5.44-3.41-6.14,5.62.88,13.34.86,18.48,3.21Z"/>
        <path class="cls-43" d="M350.18,335.35c-4.02,1.84-8.76,4.06-12.37,6.58,0-4.78.47-9.6-.16-14.37,2.19-1.08,4.59-2.48,5.24-5.09.56-2.26-3.24-17.73-2.31-18.27,5.53-1.18,11.57-2.78,17.07-4.57-1.52,7.64-3.3,15.33-5.22,22.89-.98,3.87-4.22,9.29-2.24,12.83Z"/>
        <path class="cls-11" d="M161,151.24c-3.52.3-6.86,1.61-10.09,1.86-2.96.24-21.51.25-22.27,1.31l2.27,37.09c-2.12,1.53-4.25,3.52-6.24,5.25.1-14.13-.58-28.32,0-42.47l23.65-4.93c4.27-2.76,5.19-6.55,6.39-11.17.11-1.13.21-1.3.96-.38.29,2.66,1.43,13.97,5.33,13.43Z"/>
        <path class="cls-43" d="M89.15,192.56c-6.3-16.47-21.37-9.53-29,1.75-3.76,5.56-5.51,11.88-8.13,18-3.02-.61-2.8-2.16-2.46-4.85,2.16-16.82,23.22-40.81,39.23-24.47,1.89,1.93.9.24,1.72-.96-.46,3.5-.9,7.03-1.37,10.54Z"/>
        <path class="cls-11" d="M325.75,209.59c-.49-3.12-1.04-6.27-1.51-9.39,1.78,1.24,1.63-.44,2.44-1.46,8.58-10.7,20.78-20.25,32.25-7.05,1.19,1.38,4.02,5.06,2.63,6.7-4.47,1.28-6.1-4.42-10.31-6.46-10.72-5.19-21.85,8.83-25.51,17.65Z"/>
        <path class="cls-20" d="M80.28,255.48c-.61,2.9-1.71,6.66-5.19,6.5-1.53,2.77-2.09,6.15-.93,9.14,1.58,4.06,5.29,4.83,2.71,10.7-6.68-3.55-10.74-10.55-8.87-18.12,1.65-6.68,5.99-11.3,13.06-11.85-.2,1.42-.6,2.54-.78,3.64Z"/>
        <path class="cls-32" d="M85.44,219.57c-5.94,2.12-9.64,13.76-3.56,18.09l.44,2.02c-.15,1.03.08,2.66-.11,3.93-5.2-.36-8.86-5.59-9.31-10.45-.6-6.5,2.07-15.33,8.02-18.64,1.99-1.1,4.34-.77,5.39-2.52-.34,2.47-.52,5.03-.88,7.57Z"/>
        <path class="cls-47" d="M193.09,320.03c.56.41.44.63-.29.67-.94,2.67-7.58-1.34-9.62-2.56-4.92-2.96-6.83-8.04-9.45-9.64-1.88-1.15-1.88.51-2.66.43-.84-.09-1.62-.85-2.19-.93l2.58-.47c-7.78-4.27-18.41-6.75-25.88-11.12-.95-.56-1.22-1.35-1.3-1.4,4.16,1.28,8.06,3.44,12.06,5.2,10.39,4.58,18.77,7.5,29.68,10.42l7.31.64c.39.26,1.06,8.32-.24,8.77Z"/>
        <path class="cls-22" d="M85.44,219.57c-.95,6.71-2.15,13.42-3.11,20.11-8.27-4.61-5.17-15.09.39-20.68,1.31-1.32,2.81-1.94,2.72.57Z"/>
        <path class="cls-9" d="M329.81,235.18c-.43-3.22-1.44-4.72-1.13-8.43.21-2.53-.1-4.26-.95-5.18-.34-2.25-.69-4.55-1.04-6.8,10.89,2.93,7.19,13.25,3.11,20.41Z"/>
        <path class="cls-42" d="M332.45,253.01c2.38,1.34,5.55,3.71,6.61,6.27.19.45-.35,1.07-.31,1.22-.32.79-1.28,1.17-2.88,1.14-.15-.02-.7.54-1.3.26-1.6-.74-1.8-6.93-2.13-8.89Z"/>
        <path class="cls-44" d="M80.28,255.48c-.2,1.27-.3,7.94-1.17,8.23l-4.02-1.73c1.36-2.45,4.33-3.65,5.19-6.5Z"/>
        <path class="cls-40" d="M328.68,226.75c-1.45-1.51-.72-3.65-.95-5.18,3.38-1.06,1.06,3.81.95,5.18Z"/>
        <path class="cls-26" d="M125.97,260.09c-.59-.5-1.29-.87-1.72-1.54,0-.22.29-.45.29-.67,2.88-1.01,3.64.05,1.43,2.21Z"/>
        <path class="cls-45" d="M229.45,136.26l-.79.05.22,1.29c-.15-.63-2.16-3.21-1.52-3.84.3-.45.52-.31.67.29,1.61.83,1.08,1.72,1.43,2.21Z"/>
        <path class="cls-17" d="M297.85,219.01l-.63.52c-1.7-.14-.39-1.74-.8-2.72l.96-.38.67.29c0,.63-.15,1.55-.2,2.3Z"/>
        <path class="cls-4" d="M124.68,237.29c.07.26.58,1.49.76,1.92.49,1.3-.03,1.47-.96.38-.1-1.12-.85-1.97-1.14-2.88.46-1.04,1.47-.54,1.34.58Z"/>
        <path class="cls-13" d="M123.92,235.37c2.05.33.67,1.57.76,1.92l-1.34-.58c-.54-1.7.52-1,.58-1.34Z"/>
        <path class="cls-50" d="M247.72,309.43c-.66,0-3.15,1.5-2.97-.49.84-.22,1.77-.22,2.59-.47l.38.96Z"/>
        <path class="cls-23" d="M339.14,261.46c-1.11.38-2.11.31-3.26.18l2.88-1.14c.09.32.32.63.38.96Z"/>
        <path class="cls-19" d="M297.02,244.88l-1.34-.58c.44-.6.42-1.76,1.54-1.72-.02.82-.17,1.58-.2,2.3Z"/>
        <path class="cls-36" d="M155.67,137.81l-.96.38c.12-.48-.56-2.03.49-2.96,1.01.17.35,1.47.47,2.58Z"/>
        <path class="cls-2" d="M126.21,241.12l-1.63.09c-.02-.52-.05-1.12-.09-1.63l.96-.38c.2.48.57,1.72.76,1.92Z"/>
        <path class="cls-34" d="M228.01,134.06c-.22-.11-.45-.18-.67-.29l-.52-.62c.37-.66,1.61.06,1.19.91Z"/>
        <path class="cls-3" d="M298.05,216.71l-.67-.29.29-.67c.07.31.38.7.38.96Z"/>
        <path class="cls-45" d="M230.88,138.47l-.76-1.92c.58.9.53,1.45.76,1.92Z"/>
        <path class="cls-29" d="M269.32,373.58l-1.42.79c-6.1-3.76-18.84-3.96-19.3,5.35l-1.43.99c-6.94.13-26.52-1.23-31.33,2.99-.53.46-.97.97-1.27,1.61-1.28,2.74-1.19,18.07-1.19,22.14-.58,1.99-2.23,3.24-4.95,3.76-3.23,6.82-3.93,16.21,4.88,18.69l.78,1.69c.18,3.1,1.3,20.78,2.97,21.88,5.89-.96,11.83-1.34,17.77-1.81l1.39,1.21c.23,14.2,21.97,12.16,19.27-1.55l.52-.85c9.53-.34,20.63-3.36,24.15,8.45.95,3.18,1.47,9.55,1.57,12.98l-1.52.86c-8.13-3.68-19.52-.22-21.44,9.19l-1.59.82c-16.01.17-32-.04-48,.75l-.37-1.62c5.1-6.38-1.01-13.54-7-16.56.64-4.57-2.95-5.96-6.88-3.99-6.52,3.26-11.15,12.94-7.21,19.63,1.92,1.21,4.45,3.44.95,4.03-12.34,1.43-24.68,3.13-36.99,4.7-.65.05-1.44-.05-1.65-.6-1.54-4.05-3.34-7.55-8.66-6.9-4.32.53-7.08,5.46-7.59,9.45l-1.56.78c-3.88.34-10.14,1.82-11.99-3.01-.15-.39-.66-7.49-.62-8.36.77-16.95,10.16-18.6,24.18-20.99l2.04.56c5.61,10.92,18.9,11.35,21.38-1.44l1.3-1.17c3.86-.52,8.54-1.57,10.37-5.46,2.31-4.92,1.77-17.37,2.06-23.35l.56-1.57c9.81-4.14,8.22-18.43,1.23-24.53l-.77-2.06c0-4.16.4-21.68-2.18-23.87-3.14-2.66-18.95,1.58-23.54,2.44-1.12-2.57-2.66-4.79-4.61-6.68-1.99-.98-2.93-2.2-2.83-3.68l-1.34-.58c-.38.65-1.14.59-2.3-.2-.2.91-1.61,1.1-4.22.56-.02,1.52-.98,1.9-2.88,1.14,0-.09-.78-.68-.72-1.63,1.05-16.53,13.11-16.5,26.35-19.1l1.55.42c4.66,16.24,19.62,14.82,17.9-3.15,19.53-1.77,39.74-1.76,59.21.91l1.27,1.18c-.73,9.38,13,8.37,17.83,3.66l1.78.19c4.82,2.86,7.65,15.91,6.08,20.9Z"/>
        <path class="cls-43" d="M239.29,310.56c-.64.34-1.7.97-2.21,1.43-3.3,1.25-6.8,2.17-10.49,2.76.59,3.36.02,5.72-1.7,7.08-10.51-.98-21.11-1.58-31.8-1.8.02-1.98-1.89-5.52-.47-8.15-2.36.19-4.4-.66-6.6-1.25,17.16-.32,36.3,2.13,53.27-.07Z"/>
        <path class="cls-37" d="M163.7,349.47c6.99-1.38,12.33-2.08,19.46-2.73,3.02,1.16.85,9.56-.12,11.48-.75,1.49-4.91,4.45-6.53,4.63-6.14.69-12.03-7.88-12.81-13.38Z"/>
        <path class="cls-24" d="M156.25,379.64c-3.86.72-13.14,3.73-16.24,1.77-.97-.61-2.26-6.45-2.43-7.97s.51-2.56.49-3.24c.81-1.65,1.34-.83,2.88-1.14,2.05-.52,5.19,0,3.73,2.4.36-.27.58-.17.67.29-.45-1.47.07-2.04,1.54-1.72-.45-.4-.34-.61.29-.67.39-.35.94-.38,1.63-.09,3.05,1.62,9.2,6.23,7.45,10.36Z"/>
        <path class="cls-24" d="M269.32,373.58c-2.88,9.14-14.76,7-22.15,7.13-.86-11.73,15.29-12.22,22.15-7.13Z"/>
        <path class="cls-5" d="M180.95,429.23c.45-9.23,1.01-18.95,1.02-28.17,10.03,5.33,11.31,25.34-1.02,28.17Z"/>
        <path class="cls-5" d="M214.09,431.6c-10.89-2.27-11.07-13.01-6.65-21.39l5.94-2.76c0,7.58.27,16.57.71,24.15Z"/>
        <path class="cls-35" d="M224.89,321.83c-6.46,2.6-11.86,3.72-18.94,3.34-3.36-.18-12.46-.65-13.15-4.46.09-.24.29-.5.29-.67.71-2.01,1.82-1.12,3.16-1.14,5.55-.07,13.01.18,18.55.59,3.24.24,7.86.08,10.09,2.34Z"/>
        <path class="cls-5" d="M263.24,352.68c-5.44,7-23.57,7-20.87-5.03,5.99.82,15.86,2.06,20.87,5.03Z"/>
        <path class="cls-15" d="M237.08,311.99c-5.88,5.28-3.11,6.18-12.19,9.84.76-.33-.14-6.44.23-7.6.57-1.79,9.74-2.55,11.96-2.24Z"/>
        <path class="cls-33" d="M62.7,314.65c.43.19.92.25,1.27.59-.51,1.4-.8,2.83-1,4.3-1.57-1.63-.57-3.2-.28-4.89Z"/>
        <path class="cls-8" d="M241.88,310.09c-1.38.39-1.29.31-2.59.47.9-.47,1.31-1.15,2.59-.47Z"/>
        <path class="cls-12" d="M247.4,159.11c10.15-1.38,23.8,5.3,31.57,11.61,5.31,4.31,12.65,16.49.59,15.56-9.19-.71-22.3-7.32-30.21-12.11-2.24-1.36-8.65-5.31-9.06-7.78-.69-4.19,3.48-6.77,7.11-7.26Z"/>
        <path class="cls-12" d="M186.99,167.84c-.65.12-1.48-.62-1.86-.57-.12.01,0,1.25-1.02,2.15-4.47,3.99-20.07,8.62-26.23,9.59-2.57.4-10.53,1.17-12.66.35-3.42-1.31-3.97-5.89-1.77-8.69,3.48-4.43,13.79-8.66,19.2-10.38,5.95-1.89,21.31-5.18,26.52-1.64,3.69,2.5.46,8.72-2.18,9.2Z"/>
        <path class="cls-1" d="M227.63,295.21c-.44,2.06-1.01.83-2.1.93-6.99.61-15.69.49-22.41-1.19,7.69-2.15,16.62-.75,24.52.26Z"/>
        <path class="cls-27" d="M201.4,287.86c-.55-.92.74-3.61,2.82-1.95,2.07,1.65-1.74,3.76-2.82,1.95Z"/>
        <path class="cls-37" d="M204.67,363.17c2.86-3.12,10.63,1.05,13.2,3.36,3.67,3.31,3.66,12.11-1.13,14.74-7.06,3.87-18.47-4.69-17.01-11.47.18-.84,2.07-5.96,2.35-6.16.99.11,1.68-.03,2.59-.47Z"/>
        <path class="cls-46" d="M145.16,368.5c1.44.22,2.01.73,1.72,1.54-.51.87-.28,1.71-1.54,1.72-.16-.41-.38-.51-.67-.29-1.02-.83-1.03-2.86-3.73-2.4,1.97-.4,1.63-.65,4.22-.56Z"/>
        <path class="cls-31" d="M204.67,363.17c-.37.4-.49,1.45-.87,2.01l-1.72-1.53c.76-.53,1.71-.5,2.59-.47Z"/>
        <path class="cls-51" d="M190.81,349.26c.22.4-1.94,1.27-2.58.46-.22-.4,1.94-1.27,2.58-.46Z"/>
        <path class="cls-25" d="M147.46,368.69c.41.41.3.63-.29.67-.12.21-.17.46-.29.67l-1.72-1.54c.73.02,1.6-.06,2.3.2Z"/>
        <path class="cls-46" d="M148.8,369.27l-1.63.09.29-.67c.44.16.92.36,1.34.58Z"/>
        <path class="cls-30" d="M145.35,371.75c-.13,0-.56-.2-.67-.29l.62-.51.05.8Z"/>
        <path class="cls-21" d="M172.08,167.94c-.59-1.47,2.81-1.32,2.87-1.14.31,1.11-2.5,2.05-2.87,1.14Z"/>
        <path class="cls-28" d="M149.83,173.44c-.43.35-.97-.88-.08-1.62.43-.35.97.88.08,1.62Z"/>
      </g>
    </g>
  </g>
</svg>